# xmcd
#
# Track frame offsets: 
#        150
#        4525
#        8610
#        20712
#        29922
#        44405
#        53082
#        63790
#        69470
#        87995
#        96057
#
# Disc length: 1566 seconds
#
# Revision: 4
# Processed by: cddbd v1.5.2PL0 Copyright (c) Steve Scherf et al.
# Submitted via: ExactAudioCopy v0.99pb5
#
DISCID=84061c0b
DTITLE=Beherit - The Oath of Black Blood
DYEAR=1900
DGENRE=Black Metal
TTITLE0=Intro
TTITLE1=Metal of Death
TTITLE2=The Oath of Black Blood
TTITLE3=Grave Desecration
TTITLE4=Witchcraft
TTITLE5=Goat Worship
TTITLE6=Demonomancy
TTITLE7=Black Mass Prayer
TTITLE8=Beast of Damnation
TTITLE9=Hail Sathanas
TTITLE10=Dawn of Satans Millenium
EXTD=ID3G: 0
EXTT0=
EXTT1=
EXTT2=
EXTT3=
EXTT4=
EXTT5=
EXTT6=
EXTT7=
EXTT8=
EXTT9=
EXTT10=
PLAYORDER=
